<?xml version="1.0"?>
<svg version="1.1" xmlns="http://www.w3.org/2000/svg" width="200" height="40" style=""><path fill="#960f26" d="M15.861328125,20.861328125q0-0.533203125,0.0341796875-1.5654296875t0.1025390625-2.1533203125t0.177734375-2.0986328125t0.314453125-1.4013671875q0.109375-0.21875,0.3349609375-0.2939453125t0.4443359375-0.0751953125q0.13671875,0,0.4580078125,0.0751953125t0.3212890625,0.2939453125q0,0.341796875-0.08203125,1.2919921875t-0.150390625,2.1806640625t-0.095703125,2.556640625l0,0.587890625q0,0.998046875,0.068359375,1.873046875q0.095703125,1.12109375,0.3623046875,1.845703125t0.7998046875,0.724609375q0.724609375,0,1.353515625-0.4306640625t1.1484375-1.12109375t0.9365234375-1.544921875t0.7109375-1.681640625t0.4921875-1.5244140625t0.2802734375-1.09375q0.08203125-0.451171875,0.1435546875-1.203125t0.1982421875-1.4765625t0.4853515625-1.2578125t1.0185546875-0.533203125q0.396484375,0,0.7587890625,0.13671875t0.4716796875,0.587890625q-0.21875,0.833984375-0.369140625,2.3173828125t-0.2392578125,3.1103515625t-0.1298828125,3.1513671875t-0.041015625,2.4814453125q0,1.06640625,0.02734375,2.6044921875t0.095703125,3.1787109375t0.1572265625,3.1923828125t0.1982421875,2.5908203125q0.109375,0.21875,0.109375,0.505859375q0,0.341796875-0.13671875,0.533203125t-0.3759765625,0.287109375t-0.51953125,0.123046875t-0.5400390625,0.02734375q-0.396484375,0-0.8818359375-0.13671875t-0.5947265625-0.560546875q-0.13671875-0.505859375-0.2255859375-1.3330078125t-0.1298828125-1.8046875t-0.068359375-2.0439453125t-0.02734375-2.0439453125t0.013671875-1.818359375t0.013671875-1.3740234375q0-1.0390625,0.041015625-2.0439453125t0.095703125-2.0439453125q-0.341796875,0.697265625-0.7998046875,1.4150390625t-1.0458984375,1.3056640625t-1.3125,0.9638671875t-1.572265625,0.3759765625q-1.09375,0-1.66796875-0.587890625t-0.833984375-1.4560546875t-0.2939453125-1.845703125t-0.0341796875-1.7705078125z M29.74744140625,28.900390625q0-0.9296875,0.2529296875-1.791015625t0.7587890625-1.5380859375t1.2646484375-1.080078125t1.7568359375-0.4033203125q0.615234375,0,1.3603515625,0.1845703125t1.4013671875,0.546875t1.09375,0.9228515625t0.4375,1.28515625q0,0.341796875-0.1162109375,0.51953125t-0.4716796875,0.177734375l-0.150390625-0.02734375q0.396484375,1.06640625,0.68359375,2.1875t0.560546875,2.2421875q0.109375,0.21875,0.1640625,0.3896484375t0.0546875,0.3349609375q0,0.21875-0.123046875,0.3623046875t-0.3212890625,0.2119140625t-0.41015625,0.095703125t-0.3759765625,0.02734375q-0.587890625,0-0.8818359375-0.205078125t-0.423828125-0.560546875t-0.1572265625-0.7998046875t-0.109375-0.8955078125q-0.1640625,0.533203125-0.4306640625,1.0390625t-0.62890625,0.9091796875t-0.8544921875,0.642578125t-1.107421875,0.2392578125q-0.90234375,0-1.517578125-0.51953125t-0.9912109375-1.2783203125t-0.546875-1.6201171875t-0.1708984375-1.599609375z M31.68884765625,28.708984375q0,0.505859375,0.068359375,1.06640625t0.2255859375,1.107421875t0.4033203125,1.0322265625t0.615234375,0.8544921875q0.669921875-0.724609375,0.9912109375-1.763671875t0.57421875-2.0029296875t0.57421875-1.654296875t0.9912109375-0.6904296875q0.423828125,0,0.7109375,0.150390625q-0.13671875-0.341796875-0.451171875-0.6630859375t-0.7041015625-0.587890625t-0.806640625-0.4375t-0.7861328125-0.1708984375q-0.109375,0-0.2529296875,0.0341796875t-0.2255859375,0.0068359375q-0.560546875,0.1640625-0.9228515625,0.5673828125t-0.587890625,0.9501953125t-0.3212890625,1.12109375t-0.095703125,1.080078125z M41.5964453125,25.373046875q0-0.560546875,0.328125-0.9638671875t0.7998046875-0.65625t1.0322265625-0.3759765625t1.0390625-0.123046875q0.369140625,0,0.984375,0.109375t1.203125,0.328125t1.0185546875,0.57421875t0.4306640625,0.833984375q0,0.21875-0.1640625,0.3896484375t-0.341796875,0.1708984375q-0.369140625,0-0.669921875-0.2392578125t-0.6220703125-0.505859375t-0.7041015625-0.505859375t-0.861328125-0.2392578125t-0.8681640625,0.3076171875t-0.3896484375,0.8134765625q0,0.833984375,0.587890625,1.6337890625t1.2919921875,1.681640625t1.2919921875,1.8525390625t0.587890625,2.146484375q0,0.505859375-0.2119140625,0.8544921875t-0.560546875,0.5673828125t-0.7861328125,0.3349609375t-0.84765625,0.1162109375q-0.451171875,0-1.052734375-0.2119140625t-1.134765625-0.560546875t-0.8955078125-0.8134765625t-0.3623046875-0.970703125q0-0.24609375,0.3486328125-0.314453125t0.5126953125-0.068359375q0.08203125,0,0.2529296875,0.0546875t0.3349609375,0.123046875t0.2939453125,0.150390625t0.1025390625,0.177734375q0.13671875,0.1640625,0.4169921875,0.4853515625t0.560546875,0.51953125t0.4921875,0.1435546875t0.2119140625-0.615234375q0-1.06640625-0.57421875-1.9619140625t-1.2509765625-1.75t-1.2509765625-1.6953125t-0.57421875-1.7978515625z M51.23060546875,30.390625l0-1.28515625q0-0.697265625,0.0341796875-1.9755859375t0.0888671875-2.802734375t0.150390625-3.1787109375t0.21875-3.1240234375t0.2939453125-2.6318359375t0.3896484375-1.72265625q0.13671875-0.314453125,0.451171875-0.396484375t0.615234375-0.08203125q0.478515625,0,0.8408203125,0.2119140625t0.3623046875,0.7724609375l-0.24609375,0.2734375q-0.478515625,3.158203125-0.615234375,6.34375t-0.19140625,6.37109375q0.341796875-0.533203125,0.7724609375-1.0458984375t0.95703125-0.9091796875t1.134765625-0.6357421875t1.3330078125-0.2392578125q0.9296875,0,1.5380859375,0.560546875t1.0048828125,1.4560546875t0.587890625,2.0029296875t0.2939453125,2.21484375t0.1435546875,2.0986328125t0.123046875,1.6474609375q-0.259765625,0.35546875-0.765625,0.35546875l-0.041015625,0q-0.21875,0-0.478515625-0.0546875t-0.341796875-0.2734375l0.02734375,0.02734375q-0.19140625-0.423828125-0.259765625-1.2236328125t-0.109375-1.763671875t-0.1435546875-1.9755859375t-0.3076171875-1.83203125t-0.6015625-1.353515625t-1.06640625-0.560546875l-0.08203125,0q-0.806640625,0-1.353515625,0.4921875q-0.57421875,0.51953125-0.9296875,1.3671875t-0.546875,1.88671875t-0.2939453125,2.0029296875t-0.1572265625,1.75t-0.13671875,1.1552734375q-0.08203125,0.314453125-0.4853515625,0.4169921875t-0.6904296875,0.1025390625q-0.669921875,0-1.09375-0.3828125q-0.314453125-0.751953125-0.369140625-1.873046875t-0.0546875-2.1875z"/><path fill="#" d=""/></svg>
