<svg xmlns="http://www.w3.org/2000/svg" width="1948.678" height="1086.316" viewBox="0 0 1948.678 1086.316">
  <g id="Group_1" data-name="Group 1" transform="translate(24.123 -61.298)" opacity="0.54">
    <path id="Polygon_1" data-name="Polygon 1" d="M32.5,0,65,56H0Z" transform="matrix(0.899, 0.438, -0.438, 0.899, 1733.564, 328.991)" fill="#3bbbbb"/>
    <path id="Path_1" data-name="Path 1" d="M561.614,274.376" transform="translate(0 32.741)" fill="none" stroke="#707070" stroke-width="1"/>
    <g id="Polygon_2" data-name="Polygon 2" transform="translate(48.623 77.998) rotate(60)" fill="#7b69d1">
      <path d="M 96.13394165039063 83.5 L 0.866055428981781 83.5 L 48.5 0.9999760985374451 L 96.13394165039063 83.5 Z" stroke="none"/>
      <path d="M 48.5 1.999916076660156 L 1.732093811035156 83 L 95.26790618896484 83 L 48.5 1.999916076660156 M 48.5 7.62939453125e-06 L 97 84 L 0 84 L 48.5 7.62939453125e-06 Z" stroke="none" fill="#707070"/>
    </g>
    <g id="Polygon_3" data-name="Polygon 3" transform="matrix(0.921, 0.391, -0.391, 0.921, 1835.266, 1000.002)" fill="#7b69d1">
      <path d="M 96.13394165039063 83.5 L 0.866055428981781 83.5 L 48.5 0.9999760985374451 L 96.13394165039063 83.5 Z" stroke="none"/>
      <path d="M 48.5 1.999916076660156 L 1.732093811035156 83 L 95.26790618896484 83 L 48.5 1.999916076660156 M 48.5 7.62939453125e-06 L 97 84 L 0 84 L 48.5 7.62939453125e-06 Z" stroke="none" fill="#707070"/>
    </g>
    <path id="Polygon_4" data-name="Polygon 4" d="M18.5,0,37,32H0Z" transform="translate(460 572.271)" fill="#6af04d"/>
    <path id="Polygon_5" data-name="Polygon 5" d="M18.5,0,37,32H0Z" transform="translate(752 83)" fill="#eb5fe1"/>
    <path id="Polygon_6" data-name="Polygon 6" d="M36.5,0,73,63H0Z" transform="translate(1443.486 61.298) rotate(48)" fill="#6af3a1"/>
    <g id="Polygon_9" data-name="Polygon 9" transform="matrix(1, -0.017, 0.017, 1, 1340.274, 293.086)" fill="#7b69d1">
      <path d="M 96.13394165039063 83.5 L 0.866055428981781 83.5 L 48.5 0.9999760985374451 L 96.13394165039063 83.5 Z" stroke="none"/>
      <path d="M 48.5 1.999916076660156 L 1.732093811035156 83 L 95.26790618896484 83 L 48.5 1.999916076660156 M 48.5 7.62939453125e-06 L 97 84 L 0 84 L 48.5 7.62939453125e-06 Z" stroke="none" fill="#707070"/>
    </g>
    <g id="Polygon_10" data-name="Polygon 10" transform="matrix(0.719, 0.695, -0.695, 0.719, 491.788, 872.711)" fill="#7b69d1">
      <path d="M 96.13394165039063 83.5 L 0.866055428981781 83.5 L 48.5 0.9999722838401794 L 96.13394165039063 83.5 Z" stroke="none"/>
      <path d="M 48.5 1.999916076660156 L 1.732093811035156 83 L 95.26790618896484 83 L 48.5 1.999916076660156 M 48.5 0 L 97 84 L 0 84 L 48.5 0 Z" stroke="none" fill="#707070"/>
    </g>
    <g id="Polygon_11" data-name="Polygon 11" transform="translate(1156.341 836.592) rotate(82)" fill="#7b69d1">
      <path d="M 96.13394165039063 83.5 L 0.866055428981781 83.5 L 48.5 0.9999760985374451 L 96.13394165039063 83.5 Z" stroke="none"/>
      <path d="M 48.5 1.999916076660156 L 1.732093811035156 83 L 95.26790618896484 83 L 48.5 1.999916076660156 M 48.5 7.62939453125e-06 L 97 84 L 0 84 L 48.5 7.62939453125e-06 Z" stroke="none" fill="#707070"/>
    </g>
    <path id="Polygon_12" data-name="Polygon 12" d="M32.5,0,65,56H0Z" transform="translate(838.354 1078.615) rotate(-30)" fill="#3bbbbb"/>
    <path id="Polygon_13" data-name="Polygon 13" d="M32.5,0,65,56H0Z" transform="translate(167.534 425.783) rotate(-13)" fill="#3bbbbb"/>
    <path id="Polygon_14" data-name="Polygon 14" d="M32.5,0,65,56H0Z" transform="translate(1467.354 929.09) rotate(-30)" fill="#3bbbbb"/>
    <path id="Polygon_15" data-name="Polygon 15" d="M32.5,0,65,56H0Z" transform="matrix(0.309, -0.951, 0.951, 0.309, 727.827, 793.453)" fill="#3bbbbb"/>
    <path id="Polygon_16" data-name="Polygon 16" d="M60,0l60,101H0Z" transform="matrix(0.921, 0.391, -0.391, 0.921, 57.524, 906.141)" fill="#3bbbbb"/>
    <path id="Polygon_17" data-name="Polygon 17" d="M32.5,0,65,56H0Z" transform="translate(701.808 291.306) rotate(166)" fill="#3bbbbb"/>
    <path id="Polygon_19" data-name="Polygon 19" d="M18.5,0,37,32H0Z" transform="translate(1371 1115.614)" fill="#87d45b"/>
    <circle id="Ellipse_1" data-name="Ellipse 1" cx="33.5" cy="33.5" r="33.5" transform="translate(334 81)" fill="#eb5fe1"/>
    <circle id="Ellipse_2" data-name="Ellipse 2" cx="17" cy="17" r="17" transform="translate(1073 393.681)" fill="#f3f772"/>
    <circle id="Ellipse_3" data-name="Ellipse 3" cx="38.5" cy="38.5" r="38.5" transform="translate(1161 653.859)" fill="#eb5fe1"/>
    <circle id="Ellipse_4" data-name="Ellipse 4" cx="42" cy="42" r="42" transform="translate(1048 99)" fill="#6af3a1"/>
    <circle id="Ellipse_5" data-name="Ellipse 5" cx="21.5" cy="21.5" r="21.5" transform="translate(1812 93)" fill="#26dddd"/>
    <rect id="Rectangle_1" data-name="Rectangle 1" width="66" height="66" transform="matrix(0.788, 0.616, -0.616, 0.788, 1820.313, 691.299)" fill="#68d4d4"/>
    <rect id="Rectangle_2" data-name="Rectangle 2" width="44" height="44" transform="translate(1545 617.111)" fill="#cf7fe7"/>
    <rect id="Rectangle_3" data-name="Rectangle 3" width="68" height="67" transform="translate(660 404.147)" fill="#eb81a1"/>
    <rect id="Rectangle_4" data-name="Rectangle 4" width="32" height="32" transform="translate(214 792.273)" fill="#ba5ed1"/>
    <circle id="Ellipse_6" data-name="Ellipse 6" cx="74" cy="74" r="74" transform="translate(-24 639.025)" fill="#f6f619"/>
  </g>
</svg>
